{
  "accessors": [
    {
      "bufferView": 0,
      "componentType": 5125,
      "count": 106644,
      "type": "SCALAR"
    },
    {
      "bufferView": 1,
      "componentType": 5126,
      "count": 71130,
      "max": [
        25.8298568725586,
        112.740791320801,
        48.0748519897461
      ],
      "min": [
        -28.7641563415527,
        -125.772491455078,
        -15.9890623092651
      ],
      "type": "VEC3"
    },
    {
      "bufferView": 2,
      "componentType": 5126,
      "count": 71130,
      "type": "VEC3"
    },
    {
      "bufferView": 3,
      "componentType": 5126,
      "count": 71130,
      "type": "VEC2"
    },
    {
      "bufferView": 4,
      "componentType": 5125,
      "count": 96768,
      "type": "SCALAR"
    },
    {
      "bufferView": 5,
      "componentType": 5126,
      "count": 65024,
      "max": [
        6.94665002822876,
        98.2510147094727,
        17.9133415222168
      ],
      "min": [
        -9.88094902038574,
        89.8448333740234,
        9.50168323516846
      ],
      "type": "VEC3"
    },
    {
      "bufferView": 6,
      "componentType": 5126,
      "count": 65024,
      "type": "VEC3"
    },
    {
      "bufferView": 7,
      "componentType": 5126,
      "count": 65024,
      "type": "VEC2"
    },
    {
      "bufferView": 8,
      "componentType": 5125,
      "count": 24096,
      "type": "SCALAR"
    },
    {
      "bufferView": 9,
      "componentType": 5126,
      "count": 16076,
      "max": [
        6.9296441078186,
        98.2384948730469,
        17.887134552002
      ],
      "min": [
        -9.8665018081665,
        89.8597564697266,
        9.51482486724854
      ],
      "type": "VEC3"
    },
    {
      "bufferView": 10,
      "componentType": 5126,
      "count": 16076,
      "type": "VEC3"
    },
    {
      "bufferView": 11,
      "componentType": 5126,
      "count": 16076,
      "type": "VEC2"
    },
    {
      "bufferView": 12,
      "componentType": 5125,
      "count": 426696,
      "type": "SCALAR"
    },
    {
      "bufferView": 13,
      "componentType": 5126,
      "count": 293110,
      "max": [
        8.32752323150635,
        98.6143188476562,
        4.14540863037109
      ],
      "min": [
        -8.32752323150635,
        89.6211624145508,
        -4.14540767669678
      ],
      "type": "VEC3"
    },
    {
      "bufferView": 14,
      "componentType": 5126,
      "count": 293110,
      "type": "VEC3"
    },
    {
      "bufferView": 15,
      "componentType": 5126,
      "count": 293110,
      "type": "VEC2"
    },
    {
      "bufferView": 16,
      "componentType": 5125,
      "count": 426,
      "type": "SCALAR"
    },
    {
      "bufferView": 17,
      "componentType": 5126,
      "count": 93,
      "max": [
        85.6841430664062,
        72.55322265625,
        94.305534362793
      ],
      "min": [
        -89.3517532348633,
        -119.828323364258,
        -76.3961334228516
      ],
      "type": "VEC3"
    },
    {
      "bufferView": 18,
      "componentType": 5126,
      "count": 93,
      "type": "VEC3"
    },
    {
      "bufferView": 19,
      "componentType": 5126,
      "count": 93,
      "type": "VEC2"
    },
    {
      "bufferView": 20,
      "componentType": 5125,
      "count": 1770,
      "type": "SCALAR"
    },
    {
      "bufferView": 21,
      "componentType": 5126,
      "count": 383,
      "max": [
        87.1916351318359,
        156.597854614258,
        96.2298583984375
      ],
      "min": [
        -90.9907455444336,
        -121.739624023438,
        -77.5402145385742
      ],
      "type": "VEC3"
    },
    {
      "bufferView": 22,
      "componentType": 5126,
      "count": 383,
      "type": "VEC3"
    },
    {
      "bufferView": 23,
      "componentType": 5126,
      "count": 383,
      "type": "VEC2"
    }
  ],
  "asset": {
    "generator": "Adobe Substance 3D Painter 7.4.2",
    "version": "2.0"
  },
  "bufferViews": [
    {
      "buffer": 0,
      "byteLength": 426576,
      "target": 34963
    },
    {
      "buffer": 0,
      "byteLength": 853560,
      "byteOffset": 426576,
      "target": 34962
    },
    {
      "buffer": 0,
      "byteLength": 853560,
      "byteOffset": 1280136,
      "target": 34962
    },
    {
      "buffer": 0,
      "byteLength": 569040,
      "byteOffset": 2133696,
      "target": 34962
    },
    {
      "buffer": 0,
      "byteLength": 387072,
      "byteOffset": 2702736,
      "target": 34963
    },
    {
      "buffer": 0,
      "byteLength": 780288,
      "byteOffset": 3089808,
      "target": 34962
    },
    {
      "buffer": 0,
      "byteLength": 780288,
      "byteOffset": 3870096,
      "target": 34962
    },
    {
      "buffer": 0,
      "byteLength": 520192,
      "byteOffset": 4650384,
      "target": 34962
    },
    {
      "buffer": 0,
      "byteLength": 96384,
      "byteOffset": 5170576,
      "target": 34963
    },
    {
      "buffer": 0,
      "byteLength": 192912,
      "byteOffset": 5266960,
      "target": 34962
    },
    {
      "buffer": 0,
      "byteLength": 192912,
      "byteOffset": 5459872,
      "target": 34962
    },
    {
      "buffer": 0,
      "byteLength": 128608,
      "byteOffset": 5652784,
      "target": 34962
    },
    {
      "buffer": 0,
      "byteLength": 1706784,
      "byteOffset": 5781392,
      "target": 34963
    },
    {
      "buffer": 0,
      "byteLength": 3517320,
      "byteOffset": 7488176,
      "target": 34962
    },
    {
      "buffer": 0,
      "byteLength": 3517320,
      "byteOffset": 11005496,
      "target": 34962
    },
    {
      "buffer": 0,
      "byteLength": 2344880,
      "byteOffset": 14522816,
      "target": 34962
    },
    {
      "buffer": 0,
      "byteLength": 1704,
      "byteOffset": 16867696,
      "target": 34963
    },
    {
      "buffer": 0,
      "byteLength": 1116,
      "byteOffset": 16869400,
      "target": 34962
    },
    {
      "buffer": 0,
      "byteLength": 1116,
      "byteOffset": 16870516,
      "target": 34962
    },
    {
      "buffer": 0,
      "byteLength": 744,
      "byteOffset": 16871632,
      "target": 34962
    },
    {
      "buffer": 0,
      "byteLength": 7080,
      "byteOffset": 16872376,
      "target": 34963
    },
    {
      "buffer": 0,
      "byteLength": 4596,
      "byteOffset": 16879456,
      "target": 34962
    },
    {
      "buffer": 0,
      "byteLength": 4596,
      "byteOffset": 16884052,
      "target": 34962
    },
    {
      "buffer": 0,
      "byteLength": 3064,
      "byteOffset": 16888648,
      "target": 34962
    }
  ],
  "buffers": [
    {
      "byteLength": 16891712,
      "uri": "PBR - Metallic Roughness Alpha-blend.bin"
    }
  ],
  "images": [
    {
      "uri": "clark_d_baseColor_1001.png"
    },
    {
      "uri": "clark_d_occlusionRoughnessMetallic_1001.png"
    },
    {
      "uri": "clark_d_normal_1001.png"
    },
    {
      "uri": "clark_d_emissive_1001.png"
    },
    {
      "uri": "eyes_d_baseColor_1001.png"
    },
    {
      "uri": "eyes_d_occlusionRoughnessMetallic_1001.png"
    },
    {
      "uri": "eyes_d_normal_1001.png"
    },
    {
      "uri": "glassBottle_d_baseColor_1001.png"
    },
    {
      "uri": "glassBottle_d_occlusionRoughnessMetallic_1001.png"
    },
    {
      "uri": "glassBottle_d_normal_1001.png"
    },
    {
      "uri": "glassBottle_d_emissive_1001.png"
    },
    {
      "uri": "glassy_d_baseColor_1001.png"
    },
    {
      "uri": "glassy_d_occlusionRoughnessMetallic_1001.png"
    },
    {
      "uri": "glassy_d_normal_1001.png"
    },
    {
      "uri": "glassy_d_emissive_1001.png"
    },
    {
      "uri": "lids_d_baseColor_1001.png"
    },
    {
      "uri": "lids_d_occlusionRoughnessMetallic_1001.png"
    },
    {
      "uri": "lids_d_normal_1001.png"
    },
    {
      "uri": "lids_d_emissive_1001.png"
    },
    {
      "uri": "water_d_baseColor_1001.png"
    },
    {
      "uri": "water_d_occlusionRoughnessMetallic_1001.png"
    },
    {
      "uri": "water_d_normal_1001.png"
    },
    {
      "uri": "water_d_emissive_1001.png"
    }
  ],
  "materials": [
    {
      "alphaMode": "BLEND",
      "emissiveFactor": [
        1.0,
        1.0,
        1.0
      ],
      "emissiveTexture": {
        "index": 3
      },
      "name": "clark_d_1001",
      "normalTexture": {
        "index": 2
      },
      "occlusionTexture": {
        "index": 1
      },
      "pbrMetallicRoughness": {
        "baseColorTexture": {
          "index": 0
        },
        "metallicRoughnessTexture": {
          "index": 1
        }
      }
    },
    {
      "alphaMode": "OPAQUE",
      "name": "eyes_d_1001",
      "normalTexture": {
        "index": 6
      },
      "occlusionTexture": {
        "index": 5
      },
      "pbrMetallicRoughness": {
        "baseColorTexture": {
          "index": 4
        },
        "metallicRoughnessTexture": {
          "index": 5
        }
      }
    },
    {
      "alphaMode": "BLEND",
      "emissiveFactor": [
        1.0,
        1.0,
        1.0
      ],
      "emissiveTexture": {
        "index": 10
      },
      "name": "glassBottle_d_1001",
      "normalTexture": {
        "index": 9
      },
      "occlusionTexture": {
        "index": 8
      },
      "pbrMetallicRoughness": {
        "baseColorTexture": {
          "index": 7
        },
        "metallicRoughnessTexture": {
          "index": 8
        }
      }
    },
    {
      "alphaMode": "BLEND",
      "emissiveFactor": [
        1.0,
        1.0,
        1.0
      ],
      "emissiveTexture": {
        "index": 14
      },
      "name": "glassy_d_1001",
      "normalTexture": {
        "index": 13
      },
      "occlusionTexture": {
        "index": 12
      },
      "pbrMetallicRoughness": {
        "baseColorTexture": {
          "index": 11
        },
        "metallicRoughnessTexture": {
          "index": 12
        }
      }
    },
    {
      "alphaMode": "BLEND",
      "emissiveFactor": [
        1.0,
        1.0,
        1.0
      ],
      "emissiveTexture": {
        "index": 18
      },
      "name": "lids_d_1001",
      "normalTexture": {
        "index": 17
      },
      "occlusionTexture": {
        "index": 16
      },
      "pbrMetallicRoughness": {
        "baseColorTexture": {
          "index": 15
        },
        "metallicRoughnessTexture": {
          "index": 16
        }
      }
    },
    {
      "alphaMode": "BLEND",
      "emissiveFactor": [
        1.0,
        1.0,
        1.0
      ],
      "emissiveTexture": {
        "index": 22
      },
      "name": "water_d_1001",
      "normalTexture": {
        "index": 21
      },
      "occlusionTexture": {
        "index": 20
      },
      "pbrMetallicRoughness": {
        "baseColorTexture": {
          "index": 19
        },
        "metallicRoughnessTexture": {
          "index": 20
        }
      }
    }
  ],
  "meshes": [
    {
      "name": "clark",
      "primitives": [
        {
          "attributes": {
            "NORMAL": 2,
            "POSITION": 1,
            "TEXCOORD_0": 3
          },
          "indices": 0,
          "material": 0,
          "mode": 4
        }
      ]
    },
    {
      "name": "glassy",
      "primitives": [
        {
          "attributes": {
            "NORMAL": 6,
            "POSITION": 5,
            "TEXCOORD_0": 7
          },
          "indices": 4,
          "material": 3,
          "mode": 4
        }
      ]
    },
    {
      "name": "eyes",
      "primitives": [
        {
          "attributes": {
            "NORMAL": 10,
            "POSITION": 9,
            "TEXCOORD_0": 11
          },
          "indices": 8,
          "material": 1,
          "mode": 4
        }
      ]
    },
    {
      "name": "lids",
      "primitives": [
        {
          "attributes": {
            "NORMAL": 14,
            "POSITION": 13,
            "TEXCOORD_0": 15
          },
          "indices": 12,
          "material": 4,
          "mode": 4
        }
      ]
    },
    {
      "name": "water",
      "primitives": [
        {
          "attributes": {
            "NORMAL": 18,
            "POSITION": 17,
            "TEXCOORD_0": 19
          },
          "indices": 16,
          "material": 5,
          "mode": 4
        }
      ]
    },
    {
      "name": "glassBottle",
      "primitives": [
        {
          "attributes": {
            "NORMAL": 22,
            "POSITION": 21,
            "TEXCOORD_0": 23
          },
          "indices": 20,
          "material": 2,
          "mode": 4
        }
      ]
    }
  ],
  "nodes": [
    {
      "children": [
        1,
        3,
        5,
        7,
        9,
        11
      ],
      "name": "RootNode"
    },
    {
      "children": [
        2
      ],
      "name": "clark",
      "scale": [
        0.0177372116595507,
        0.0177372116595507,
        0.0177372116595507
      ]
    },
    {
      "mesh": 0,
      "name": "clark"
    },
    {
      "children": [
        4
      ],
      "name": "glassy",
      "scale": [
        0.0177372116595507,
        0.0177372116595507,
        0.0177372116595507
      ]
    },
    {
      "mesh": 1,
      "name": "glassy"
    },
    {
      "children": [
        6
      ],
      "name": "eyes",
      "scale": [
        0.0177372116595507,
        0.0177372116595507,
        0.0177372116595507
      ]
    },
    {
      "mesh": 2,
      "name": "eyes"
    },
    {
      "children": [
        8
      ],
      "name": "lids",
      "scale": [
        0.0177372116595507,
        0.0177372116595507,
        0.0177372116595507
      ],
      "translation": [
        -0.0260231364518404,
        3.12577627626862e-13,
        0.234664022922516
      ]
    },
    {
      "mesh": 3,
      "name": "lids"
    },
    {
      "children": [
        10
      ],
      "name": "water",
      "scale": [
        0.0177372116595507,
        0.0177372116595507,
        0.0177372116595507
      ]
    },
    {
      "mesh": 4,
      "name": "water"
    },
    {
      "children": [
        12
      ],
      "name": "glassBottle",
      "scale": [
        0.0177372116595507,
        0.0177372116595507,
        0.0177372116595507
      ]
    },
    {
      "mesh": 5,
      "name": "glassBottle"
    }
  ],
  "samplers": [
    {
      "magFilter": 9729,
      "minFilter": 9985,
      "wrapS": 10497,
      "wrapT": 10497
    }
  ],
  "scene": 0,
  "scenes": [
    {
      "name": "Scene",
      "nodes": [
        0
      ]
    }
  ],
  "textures": [
    {
      "sampler": 0,
      "source": 0
    },
    {
      "sampler": 0,
      "source": 1
    },
    {
      "sampler": 0,
      "source": 2
    },
    {
      "sampler": 0,
      "source": 3
    },
    {
      "sampler": 0,
      "source": 4
    },
    {
      "sampler": 0,
      "source": 5
    },
    {
      "sampler": 0,
      "source": 6
    },
    {
      "sampler": 0,
      "source": 7
    },
    {
      "sampler": 0,
      "source": 8
    },
    {
      "sampler": 0,
      "source": 9
    },
    {
      "sampler": 0,
      "source": 10
    },
    {
      "sampler": 0,
      "source": 11
    },
    {
      "sampler": 0,
      "source": 12
    },
    {
      "sampler": 0,
      "source": 13
    },
    {
      "sampler": 0,
      "source": 14
    },
    {
      "sampler": 0,
      "source": 15
    },
    {
      "sampler": 0,
      "source": 16
    },
    {
      "sampler": 0,
      "source": 17
    },
    {
      "sampler": 0,
      "source": 18
    },
    {
      "sampler": 0,
      "source": 19
    },
    {
      "sampler": 0,
      "source": 20
    },
    {
      "sampler": 0,
      "source": 21
    },
    {
      "sampler": 0,
      "source": 22
    }
  ]
}